<?xml version="1.0" encoding="UTF-8"?>
<svg width="32px" height="32px" viewBox="0 0 32 32" version="1.1" xmlns="http://www.w3.org/2000/svg" xmlns:xlink="http://www.w3.org/1999/xlink">
    <!-- Generator: Sketch 54.1 (76490) - https://sketchapp.com -->
    <title>show-labels-active</title>
    <desc>Created with Sketch.</desc>
    <g stroke="none" stroke-width="1" fill="none" fill-rule="evenodd">
        <path d="M16,32 C7.163444,32 -3.55271368e-15,24.836556 -3.55271368e-15,16 C-3.55271368e-15,7.163444 7.163444,0 16,0 C24.836556,0 32,7.163444 32,16 C32,24.836556 24.836556,32 16,32 Z M18.9466689,21.1999577 C18.3943841,21.1999577 17.9466689,20.7522425 17.9466689,20.1999577 L17.9466689,13.3464421 C17.9466689,12.7941574 17.4989536,12.3464421 16.9466689,12.3464421 L12.8744033,12.3464421 C12.3221185,12.3464421 11.8744033,12.7941574 11.8744033,13.3464421 L11.8744033,14.875739 C11.8744033,15.4280237 12.3221185,15.875739 12.8744033,15.875739 L13.1165908,15.875739 C13.6688755,15.875739 14.1165908,16.3234542 14.1165908,16.875739 L14.1165908,20.1999577 C14.1165908,20.7522425 13.6688755,21.1999577 13.1165908,21.1999577 L12.8744033,21.1999577 C12.3221185,21.1999577 11.8744033,21.647673 11.8744033,22.1999577 L11.8744033,23.7155827 C11.8744033,24.2678675 12.3221185,24.7155827 12.8744033,24.7155827 L19.1341689,24.7155827 C19.6864536,24.7155827 20.1341689,24.2678675 20.1341689,23.7155827 L20.1341689,22.1999577 C20.1341689,21.647673 19.6864536,21.1999577 19.1341689,21.1999577 L18.9466689,21.1999577 Z M18.1107314,8.00659837 C18.1107314,7.3923811 17.8950718,6.85922259 17.4720973,6.4362481 C17.0491228,6.01327361 16.5159643,5.79761399 15.901747,5.79761399 C15.3014522,5.79761399 14.775868,6.0211383 14.3539309,6.45479589 C13.9352901,6.88506565 13.7201064,7.41107022 13.7201064,8.00659837 C13.7201064,8.60212652 13.9352901,9.12813109 14.3539309,9.55840085 C14.775868,9.99205843 15.3014522,10.2155827 15.901747,10.2155827 C16.5001695,10.2155827 17.0280831,9.99361908 17.4584254,9.56327676 C17.8887677,9.13293444 18.1107314,8.60502086 18.1107314,8.00659837 Z" fill="#FFFFFF" fill-rule="nonzero"></path>
    </g>
</svg>