<?xml version="1.0" encoding="UTF-8"?>
<svg width="32px" height="32px" viewBox="0 0 32 32" version="1.1" xmlns="http://www.w3.org/2000/svg" xmlns:xlink="http://www.w3.org/1999/xlink">
    <!-- Generator: Sketch 54.1 (76490) - https://sketchapp.com -->
    <title>show-labels-inactive</title>
    <desc>Created with Sketch.</desc>
    <g stroke="none" stroke-width="1" fill="none" fill-rule="evenodd">
        <path d="M17.6107314,8.00659837 C17.6107314,8.47144444 17.4421133,8.8724821 17.104872,9.20972337 C16.7676308,9.54696464 16.3665931,9.71558274 15.901747,9.71558274 C15.4369009,9.71558274 15.0404205,9.54696464 14.7122939,9.20972337 C14.3841673,8.8724821 14.2201064,8.47144444 14.2201064,8.00659837 C14.2201064,7.54175229 14.3841673,7.14071464 14.7122939,6.80347337 C15.0404205,6.4662321 15.4369009,6.29761399 15.901747,6.29761399 C16.3848224,6.29761399 16.7904173,6.46167485 17.1185439,6.78980149 C17.4466705,7.11792813 17.6107314,7.52352304 17.6107314,8.00659837 Z M19.6341689,22.6999577 L19.6341689,23.2155827 C19.6341689,23.7678675 19.1864536,24.2155827 18.6341689,24.2155827 L13.3744033,24.2155827 C12.8221185,24.2155827 12.3744033,23.7678675 12.3744033,23.2155827 L12.3744033,22.6999577 C12.3744033,22.147673 12.8221185,21.6999577 13.3744033,21.6999577 L13.6165908,21.6999577 C14.1688755,21.6999577 14.6165908,21.2522425 14.6165908,20.6999577 L14.6165908,16.375739 C14.6165908,15.8234542 14.1688755,15.375739 13.6165908,15.375739 L13.3744033,15.375739 C12.8221185,15.375739 12.3744033,14.9280237 12.3744033,14.375739 L12.3744033,13.8464421 C12.3744033,13.2941574 12.8221185,12.8464421 13.3744033,12.8464421 L16.4466689,12.8464421 C16.9989536,12.8464421 17.4466689,13.2941574 17.4466689,13.8464421 L17.4466689,20.6999577 C17.4466689,21.2522425 17.8943841,21.6999577 18.4466689,21.6999577 L18.6341689,21.6999577 C19.1864536,21.6999577 19.6341689,22.147673 19.6341689,22.6999577 Z" fill="#FFFFFF" fill-rule="nonzero"></path>
        <circle stroke="#FFFFFF" stroke-width="3" cx="16" cy="16" r="14.5"></circle>
    </g>
</svg>